<svg width="58" height="76" viewBox="0 0 58 76" fill="none" xmlns="http://www.w3.org/2000/svg">
<path d="M57.9986 29.7156C57.9986 34.5231 56.7197 39.0305 54.199 43.2353C51.6664 47.4414 48.3236 50.7051 44.2623 52.9396C40.2143 55.1614 35.4491 56.2914 30.0956 56.2914C24.4154 56.2914 19.2585 55.0733 14.7536 52.6881C10.2103 50.253 6.56735 46.7633 3.94307 42.3057C1.31878 37.8737 0 33.0292 0 27.9063C0 20.8388 2.45428 14.5999 7.32436 9.37744C13.0829 3.16284 20.6557 0 29.8221 0C34.5487 0 39.0535 0.865728 43.1799 2.54866C46.7577 4.01708 50.2705 6.51594 53.6 9.98013L55.7409 12.2019L44.4854 22.9099L42.1879 20.5744C38.5967 16.9213 34.562 15.1515 29.8752 15.1515C25.8538 15.1515 22.5893 16.3811 19.9132 18.917C17.2491 21.4274 15.9437 24.4025 15.9437 28.0059C15.9437 31.6093 17.3022 34.8347 20.0819 37.4331C22.8895 40.0571 26.2841 41.3378 30.4489 41.3378C33.0865 41.3378 35.2805 40.836 36.9778 39.8311C37.173 39.7175 37.3696 39.5923 37.5529 39.4544H26.4939V24.6668H57.83L58 29.7131L57.9986 29.7156Z" fill="#1D1D1B"/>
<path d="M40.9994 59.207H17.001V76.0006H40.9994V59.207Z" fill="#1D1D1B"/>
</svg>
